# 3ds Max Wavefront OBJ Exporter v0.97b - (c)2007 guruware
# File Created: 12.07.2018 16:07:16

mtllib magnet.mtl

#
# object pCube1
#

v  -0.7225 7.0302 -4.3504
v  0.7225 7.0302 -4.3504
v  0.7708 5.5534 -4.8429
v  -0.7708 5.5534 -4.8429
v  0.8371 4.2061 -5.2576
v  -0.8371 4.2061 -5.2576
v  0.8708 3.0579 -5.3384
v  -0.8708 3.0579 -5.3384
v  -0.8716 2.0421 -5.0882
v  0.8716 2.0421 -5.0882
v  0.8725 1.0264 -4.3719
v  -0.8725 1.0264 -4.3719
v  -0.8725 0.2707 -3.1429
v  0.8725 0.2707 -3.1429
v  0.8725 0.0514 -1.9140
v  -0.8725 0.0514 -1.9140
v  -0.8725 0.2693 -0.6280
v  0.8725 0.2693 -0.6280
v  0.8725 1.0235 0.6579
v  -0.8725 1.0235 0.6579
v  -0.8716 2.0392 1.3715
v  0.8716 2.0392 1.3715
v  0.8708 3.0549 1.6190
v  -0.8708 3.0549 1.6190
v  0.8371 4.2032 1.5326
v  -0.8371 4.2032 1.5326
v  0.7709 5.5506 1.1126
v  -0.7709 5.5506 1.1126
v  0.7225 7.0275 0.6150
v  -0.7225 7.0275 0.6150
v  0.7225 7.0275 -0.6253
v  -0.7225 7.0275 -0.6253
v  0.7690 5.5523 -0.3796
v  -0.7690 5.5523 -0.3796
v  0.8343 4.2079 -0.1714
v  -0.8343 4.2079 -0.1714
v  0.8703 3.0560 -0.1238
v  -0.8703 3.0560 -0.1238
v  0.8714 2.6261 -0.2966
v  -0.8714 2.6261 -0.2966
v  -0.8725 2.1962 -0.6024
v  0.8725 2.1962 -0.6024
v  0.8725 1.8668 -1.2550
v  -0.8725 1.8668 -1.2550
v  -0.8725 1.8162 -1.9076
v  0.8725 1.8162 -1.9076
v  0.8725 1.8712 -2.5096
v  -0.8725 1.8712 -2.5096
v  -0.8725 2.2051 -3.1117
v  0.8725 2.2051 -3.1117
v  0.8714 2.6350 -3.4201
v  -0.8714 2.6350 -3.4201
v  -0.8703 3.0649 -3.5956
v  0.8703 3.0649 -3.5956
v  0.8343 4.2166 -3.5537
v  -0.8343 4.2166 -3.5537
v  0.7690 5.5606 -3.3511
v  -0.7690 5.5606 -3.3511
v  0.7225 7.0355 -3.1100
v  -0.7225 7.0355 -3.1100
# 60 vertices

vn 0.0000 0.3164 -0.9486
vn 0.0000 0.3052 -0.9523
vn 0.0000 0.1886 -0.9821
vn 0.0000 -0.0811 -0.9967
vn 0.0000 -0.4298 -0.9029
vn 0.0000 -0.7394 -0.6732
vn 0.0000 -0.9295 -0.3687
vn 0.0000 -1.0000 -0.0006
vn 0.0000 -0.9354 0.3536
vn 0.0000 -0.7489 0.6627
vn 0.0000 -0.4278 0.9039
vn 0.0000 -0.0773 0.9970
vn 0.0000 0.1928 0.9812
vn 0.0000 0.3083 0.9513
vn 0.0000 0.3193 0.9477
vn 0.0000 1.0000 0.0000
vn 0.0000 -0.1643 -0.9864
vn 0.0000 -0.1586 -0.9873
vn 0.0000 -0.0988 -0.9951
vn 0.0000 0.0827 -0.9966
vn 0.0000 0.4865 -0.8737
vn 0.0000 0.7839 -0.6209
vn 0.0000 0.9601 -0.2795
vn 0.0000 1.0000 0.0035
vn 0.0000 0.9516 0.3073
vn 0.0000 0.7662 0.6426
vn 0.0000 0.4907 0.8713
vn 0.0000 0.0880 0.9961
vn 0.0000 -0.0944 0.9955
vn 0.0000 -0.1551 0.9879
vn 0.0000 -0.1613 0.9869
vn 0.0000 1.0000 -0.0044
vn 0.9995 0.0320 0.0005
vn 0.9992 0.0397 0.0008
vn 0.9991 0.0422 0.0009
vn 0.9992 0.0403 0.0010
vn 0.9993 0.0386 0.0010
vn 0.9998 0.0174 0.0004
vn 0.9998 0.0196 0.0005
vn 1.0000 0.0012 -0.0003
vn 1.0000 0.0011 -0.0003
vn 1.0000 0.0004 -0.0002
vn 1.0000 0.0005 -0.0002
vn 1.0000 0.0000 -0.0000
vn 1.0000 0.0004 0.0002
vn 1.0000 0.0005 0.0002
vn 1.0000 0.0012 0.0003
vn 1.0000 0.0011 0.0003
vn 0.9998 0.0175 -0.0005
vn 0.9998 0.0196 -0.0006
vn 0.9992 0.0403 -0.0012
vn 0.9993 0.0385 -0.0011
vn 0.9992 0.0396 -0.0010
vn 0.9991 0.0422 -0.0011
vn 0.9995 0.0319 -0.0007
vn -0.9995 0.0320 0.0005
vn -0.9991 0.0422 0.0009
vn -0.9992 0.0397 0.0008
vn -0.9993 0.0386 0.0010
vn -0.9992 0.0403 0.0010
vn -0.9998 0.0196 0.0005
vn -0.9998 0.0174 0.0004
vn -1.0000 0.0011 -0.0003
vn -1.0000 0.0012 -0.0003
vn -1.0000 0.0005 -0.0002
vn -1.0000 0.0004 -0.0002
vn -1.0000 0.0000 -0.0000
vn -1.0000 0.0005 0.0002
vn -1.0000 0.0004 0.0002
vn -1.0000 0.0011 0.0003
vn -1.0000 0.0012 0.0003
vn -0.9998 0.0196 -0.0006
vn -0.9998 0.0175 -0.0005
vn -0.9993 0.0385 -0.0011
vn -0.9992 0.0403 -0.0012
vn -0.9991 0.0422 -0.0011
vn -0.9992 0.0396 -0.0010
vn -0.9995 0.0319 -0.0007
# 78 vertex normals

vt 0.2985 0.8591 0.0000
vt 0.4390 0.8721 0.0000
vt 0.4998 0.9466 0.0000
vt 0.2406 0.9786 0.0000
vt 0.9271 0.0747 0.0000
vt 0.1001 0.0747 0.0000
vt 0.0646 0.0388 0.0000
vt 0.9627 0.0388 0.0000
vt 0.0465 0.0332 0.0000
vt 0.9808 0.0332 0.0000
vt 0.9812 0.0577 0.0000
vt 0.0460 0.0577 0.0000
vt 0.0455 0.1249 0.0000
vt 0.9816 0.1249 0.0000
vt 0.9815 0.2387 0.0000
vt 0.0454 0.2387 0.0000
vt 0.0453 0.3517 0.0000
vt 0.9814 0.3517 0.0000
vt 0.9813 0.4692 0.0000
vt 0.0452 0.4692 0.0000
vt 0.0451 0.5859 0.0000
vt 0.9812 0.5859 0.0000
vt 0.9807 0.6497 0.0000
vt 0.0455 0.6497 0.0000
vt 0.0459 0.6708 0.0000
vt 0.9802 0.6708 0.0000
vt 0.0640 0.6611 0.0000
vt 0.9621 0.6612 0.0000
vt 0.0996 0.6206 0.0000
vt 0.9266 0.6206 0.0000
vt 0.7717 0.9466 0.0000
vt 0.5127 0.9779 0.0000
vt 0.5711 0.8591 0.0000
vt 0.7107 0.8731 0.0000
vt 0.5940 0.7544 0.0000
vt 0.6705 0.8006 0.0000
vt 0.4999 0.7038 0.0000
vt 0.7706 0.6858 0.0000
vt 0.9258 0.4838 0.0000
vt 0.1007 0.4838 0.0000
vt 0.0656 0.5050 0.0000
vt 0.9608 0.5050 0.0000
vt 0.0464 0.5111 0.0000
vt 0.9801 0.5111 0.0000
vt 0.0458 0.4959 0.0000
vt 0.9807 0.4959 0.0000
vt 0.9813 0.4686 0.0000
vt 0.0452 0.4686 0.0000
vt 0.0453 0.4092 0.0000
vt 0.9813 0.4093 0.0000
vt 0.9814 0.3495 0.0000
vt 0.0453 0.3495 0.0000
vt 0.0454 0.2943 0.0000
vt 0.9814 0.2943 0.0000
vt 0.9815 0.2386 0.0000
vt 0.0454 0.2386 0.0000
vt 0.0460 0.2096 0.0000
vt 0.9809 0.2097 0.0000
vt 0.9803 0.1929 0.0000
vt 0.0466 0.1929 0.0000
vt 0.0659 0.1949 0.0000
vt 0.9611 0.1950 0.0000
vt 0.1009 0.2114 0.0000
vt 0.9260 0.2115 0.0000
vt 0.2283 0.7039 0.0000
vt 0.4991 0.6858 0.0000
vt 0.3978 0.8016 0.0000
vt 0.3237 0.7541 0.0000
# 68 texture coords

g pCube1
usemtl 01___Default
s off
f 1/1/1 2/2/1 3/3/2 4/4/2 
f 4/5/2 3/6/2 5/7/3 6/8/3 
f 6/8/3 5/7/3 7/9/4 8/10/4 
f 9/11/5 10/12/5 11/13/6 12/14/6 
f 13/15/7 14/16/7 15/17/8 16/18/8 
f 17/19/9 18/20/9 19/21/10 20/22/10 
f 21/23/11 22/24/11 23/25/12 24/26/12 
f 24/26/12 23/25/12 25/27/13 26/28/13 
f 26/28/13 25/27/13 27/29/14 28/30/14 
f 28/31/14 27/32/14 29/33/15 30/34/15 
f 30/34/16 29/33/16 31/35/16 32/36/16 
f 32/36/17 31/35/17 33/37/18 34/38/18 
f 34/39/18 33/40/18 35/41/19 36/42/19 
f 36/42/19 35/41/19 37/43/20 38/44/20 
f 38/44/20 37/43/20 39/45/21 40/46/21 
f 41/47/22 42/48/22 43/49/23 44/50/23 
f 45/51/24 46/52/24 47/53/25 48/54/25 
f 49/55/26 50/56/26 51/57/27 52/58/27 
f 53/59/28 54/60/28 55/61/29 56/62/29 
f 56/62/29 55/61/29 57/63/30 58/64/30 
f 58/65/30 57/66/30 59/67/31 60/68/31 
f 60/68/32 59/67/32 2/2/32 1/1/32 
f 2/2/33 59/67/33 57/66/34 3/3/35 
f 3/6/35 57/63/34 55/61/36 5/7/37 
f 5/7/37 55/61/36 54/60/38 7/9/39 
f 10/12/40 51/57/41 50/56/42 11/13/43 
f 14/16/44 47/53/44 46/52/44 15/17/44 
f 18/20/44 43/49/44 42/48/45 19/21/46 
f 22/24/47 39/45/48 37/43/49 23/25/50 
f 23/25/50 37/43/49 35/41/51 25/27/52 
f 25/27/52 35/41/51 33/40/53 27/29/54 
f 27/32/54 33/37/53 31/35/55 29/33/55 
f 60/68/56 1/1/56 4/4/57 58/65/58 
f 58/64/58 4/5/57 6/8/59 56/62/60 
f 56/62/60 6/8/59 8/10/61 53/59/62 
f 52/58/63 9/11/64 12/14/65 49/55/66 
f 48/54/67 13/15/67 16/18/67 45/51/67 
f 44/50/67 17/19/67 20/22/68 41/47/69 
f 40/46/70 21/23/71 24/26/72 38/44/73 
f 38/44/73 24/26/72 26/28/74 36/42/75 
f 36/42/75 26/28/74 28/30/76 34/39/77 
f 34/38/77 28/31/76 30/34/78 32/36/78 
f 16/18/8 15/17/8 18/20/9 17/19/9 
f 15/17/44 46/52/44 43/49/44 18/20/44 
f 44/50/23 43/49/23 46/52/24 45/51/24 
f 45/51/67 16/18/67 17/19/67 44/50/67 
f 12/14/6 11/13/6 14/16/7 13/15/7 
f 11/13/43 50/56/42 47/53/44 14/16/44 
f 48/54/25 47/53/25 50/56/26 49/55/26 
f 49/55/66 12/14/65 13/15/67 48/54/67 
f 8/10/4 7/9/4 10/12/5 9/11/5 
f 7/9/39 54/60/38 51/57/41 10/12/40 
f 52/58/27 51/57/27 54/60/28 53/59/28 
f 53/59/62 8/10/61 9/11/64 52/58/63 
f 20/22/10 19/21/10 22/24/11 21/23/11 
f 19/21/46 42/48/45 39/45/48 22/24/47 
f 40/46/21 39/45/21 42/48/22 41/47/22 
f 41/47/69 20/22/68 21/23/71 40/46/70 
# 58 polygons

